<?xml version="1.0" encoding="UTF-8" standalone="no"?> <svg xmlns="http://www.w3.org/2000/svg" xmlns:xlink="http://www.w3.org/1999/xlink" xmlns:serif="http://www.serif.com/" width="100%" height="100%" viewBox="0 0 64 64" version="1.1" xml:space="preserve" style="fill-rule:evenodd;clip-rule:evenodd;stroke-linejoin:round;stroke-miterlimit:2;"> <g transform="matrix(1,0,0,1,-68,-68)"> <g id="UFR_Favicon_Version_1"> <g transform="matrix(0.32,0,0,0.32,68,68)"> <rect x="0" y="0" width="200" height="200" style="fill:rgb(52,74,154);"></rect> </g> <g transform="matrix(0.32,0,0,0.32,77.0864,86.2022)"> <g id="UFR-logo-short-white-FFFFFF"> <g id="Group-8"> <g id="Fill-1" transform="matrix(1,0,0,1,0,-2.874)"> <path d="M16.751,79.111C25.664,79.111 31.784,73.634 34.576,66.118L34.576,77.929L46.6,77.929L46.6,25.314L34.36,25.314L34.36,51.3C34.36,62.9 28.777,68.8 21.154,68.8C15.14,68.8 12.134,64.721 12.134,56.345L12.134,25.314L0,25.314L0,59.354C0,71.38 5.691,79.111 16.751,79.111" style="fill:white;"></path> </g> <g id="Fill-4" transform="matrix(1,0,0,1,-14.105,-2.681)"> <path d="M136.376,77.737L136.376,55.4C136.376,41.871 143.355,36.072 154.093,36.072C154.718,36.072 155.268,36.072 155.78,36.098L157.314,23.724C156.381,23.652 155.665,23.617 155.166,23.618C145.61,23.618 139.274,29.845 136.161,39.509L136.161,25.123L124.241,25.123L124.241,77.737L136.376,77.737Z" style="fill:white;"></path> </g> <g id="Fill-6" transform="matrix(1,0,0,1,-6.646,0)"> <path d="M98.842,75.056L98.842,31.676L111.4,31.676L111.4,22.441L98.842,22.441L98.842,17.395C98.842,12.241 100.989,9.771 106.466,9.771C108.092,9.76 109.714,9.94 111.298,10.308L111.298,1.074C108.774,0.401 106.178,0.041 103.566,0C93.688,0 87.03,4.832 87.03,15.89L87.03,22.441L58.544,22.441L58.544,31.676L87.03,31.676L87.03,75.056L98.842,75.056Z" style="fill:white;"></path> </g> </g> </g> </g> </g> </g> </svg> 