<?xml version="1.0" encoding="UTF-8" standalone="no"?>
<!-- Created with Inkscape (http://www.inkscape.org/) -->

<svg
   width="60.050938mm"
   height="6.6389418mm"
   viewBox="0 0 60.050937 6.6389416"
   version="1.1"
   id="svg5385"
   inkscape:version="1.2.2 (732a01da63, 2022-12-09)"
   sodipodi:docname="logo.svg"
   inkscape:export-filename="logo.png"
   inkscape:export-xdpi="635.90881"
   inkscape:export-ydpi="635.90881"
   xmlns:inkscape="http://www.inkscape.org/namespaces/inkscape"
   xmlns:sodipodi="http://sodipodi.sourceforge.net/DTD/sodipodi-0.dtd"
   xmlns="http://www.w3.org/2000/svg"
   xmlns:svg="http://www.w3.org/2000/svg"
   xmlns:rdf="http://www.w3.org/1999/02/22-rdf-syntax-ns#"
   xmlns:cc="http://creativecommons.org/ns#"
   xmlns:dc="http://purl.org/dc/elements/1.1/">
  <metadata
     id="metadata184">
    <rdf:RDF>
      <cc:Work
         rdf:about="">
        <dc:format>image/svg+xml</dc:format>
        <dc:type
           rdf:resource="http://purl.org/dc/dcmitype/StillImage" />
      </cc:Work>
    </rdf:RDF>
  </metadata>
  <sodipodi:namedview
     id="namedview5387"
     pagecolor="#ffffff"
     bordercolor="#000000"
     borderopacity="0.25"
     inkscape:showpageshadow="2"
     inkscape:pageopacity="0.0"
     inkscape:pagecheckerboard="0"
     inkscape:deskcolor="#d1d1d1"
     inkscape:document-units="mm"
     showgrid="false"
     inkscape:zoom="1.2938725"
     inkscape:cx="437.44651"
     inkscape:cy="2.3186211"
     inkscape:window-width="1920"
     inkscape:window-height="1017"
     inkscape:window-x="-8"
     inkscape:window-y="-8"
     inkscape:window-maximized="1"
     inkscape:current-layer="layer1"
     showguides="true"
     fit-margin-top="0"
     fit-margin-left="0"
     fit-margin-right="0"
     fit-margin-bottom="0">
    <sodipodi:guide
       position="-1.408014,-272.16509"
       orientation="0,-1"
       id="guide5474"
       inkscape:locked="false" />
  </sodipodi:namedview>
  <defs
     id="defs5382" />
  <g
     inkscape:label="Layer 1"
     inkscape:groupmode="layer"
     id="layer1"
     transform="translate(-124.41912,-72.548495)">
    <g
       id="Page-1"
       transform="matrix(0.02044009,0,0,0.02044009,124.41372,72.471272)"
       style="opacity:1">
      <g
         id="Group"
         transform="translate(0.264,0.178)">
        <path
           id="universitätfreiburg"
           class="st0"
           d="m 55.8,257.8 c 29.7,0 50.1,-18.3 59.4,-43.3 v 39.4 h 40.1 V 78.4 H 114.5 V 165 c 0,38.7 -18.6,58.4 -44,58.4 -20,0 -30.1,-13.6 -30.1,-41.5 V 78.4 H 0 v 113.5 c 0,40.1 19,65.9 55.8,65.9 z m 180.1,-4 v -87.7 c 0,-35.8 18.3,-57.3 44,-57.3 22.2,0 32.9,14 32.9,42.2 V 253.7 H 354 V 141.1 c 0,-39.7 -20.8,-66.6 -59.1,-66.6 -30.4,0 -51.2,19 -60.1,45.1 V 78.4 h -39.7 v 175.4 z m 194.9,0 V 78.4 H 390 v 175.4 z m 132.7,0 68,-175.4 H 590.7 L 543.8,213.7 498.3,78.4 h -44.8 l 67.3,175.4 z m 160.7,4 c 42.6,0 68.7,-23.3 79.5,-50.8 L 770,193 c -7.9,20.8 -22.2,33.7 -44.4,33.7 -30.8,0 -45.8,-21.5 -46.9,-52.6 h 125.7 v -7.2 c 0,-57.3 -29.4,-93.8 -81.3,-93.8 -48,0 -84.5,34 -84.5,92.4 0.1,55.7 30.5,92.3 85.6,92.3 z m 39.4,-111.7 h -83.8 c 2.9,-27.2 18.6,-43 43,-43 23.6,0 39.4,14.3 40.8,43 z M 876,253.8 v -74.5 c 0,-45.1 23.3,-64.4 59.1,-64.4 2.1,0 3.9,0 5.6,0.1 0,0 1.7,-13.8 5.1,-41.3 -3.1,-0.2 -5.5,-0.4 -7.2,-0.4 -31.9,0 -53,20.8 -63.4,53 v -48 H 835.5 V 253.7 H 876 Z m 1019,0 v -74.5 c 0,-45.1 23.3,-64.4 59.1,-64.4 2.1,0 3.9,0 5.6,0.1 0,0 1.7,-13.8 5.1,-41.3 -3.1,-0.2 -5.5,-0.4 -7.2,-0.4 -31.9,0 -53,20.8 -63.4,53 v -48 h -39.7 v 175.4 h 40.5 z m 777,0 v -74.5 c 0,-45.1 23.3,-64.4 59.1,-64.4 2.1,0 3.9,0 5.6,0.1 0,0 1.7,-13.8 5.1,-41.3 -3.1,-0.2 -5.5,-0.4 -7.2,-0.4 -31.9,0 -53,20.8 -63.4,53 v -48 h -39.7 v 175.4 h 40.5 z m -1641,5 c 44.4,0 73,-21.1 73,-55.8 0,-24.7 -14.3,-43 -48.3,-51.9 l -30.4,-8.2 c -19.3,-5.4 -27.6,-10.4 -27.6,-22.6 0,-11.5 10.4,-19.7 30.1,-19.7 22.6,0 33.7,14 36.9,28.3 l 34.7,-9.3 c -7.5,-29 -34.4,-46.5 -69.8,-46.5 -40.1,0 -68.4,20 -68.4,51.9 0,25.1 16.1,43 47.6,50.8 l 28.6,7.9 c 21.5,5.7 28.3,11.5 28.3,24.3 0,12.8 -11.5,22.9 -34,22.9 -23.3,0 -38.7,-14.7 -42.2,-34 l -35.8,10 c 6.1,30.5 34,51.9 77.3,51.9 z m 143.6,-5 V 78.4 h -40.8 v 175.4 z m 113.5,3.6 c 12.9,0 24.3,-3.2 30.8,-6.4 v -30.1 c -7.2,2.1 -12.9,3.2 -20,3.2 -17.5,0 -25.8,-6.8 -25.8,-25.8 v -89.1 h 44 V 78.4 h -44.4 V 26.1 h -39 V 78.4 H 1195 v 30.8 h 38.7 v 94.5 c -0.1,36.2 18.9,53.7 54.4,53.7 z m 107.7,1.4 c 29.7,0 50.1,-15.8 59.1,-37.9 1.4,22.9 14.7,36.2 39,36.2 9,0 18.3,-2.1 24,-5.7 v -26.1 c -3.9,1.8 -7.9,2.1 -11.5,2.1 -10.7,0 -15.8,-4.7 -15.8,-20 v -65.9 c 0,-44.4 -26.8,-68.4 -75.5,-68.4 -42.2,0 -72.3,21.5 -74.1,53 l 38.3,6.4 v -3.2 c 1.4,-18.3 15,-28.3 35.8,-28.3 25.4,0 36.2,12.2 36.2,34.4 v 9.7 c -8.6,-0.7 -17.5,-1.4 -28.3,-1.4 -46.9,0.7 -84.5,16.8 -84.5,61.6 0,34.2 24,53.5 57.3,53.5 z m 13.3,-30 c -19,0 -30.4,-10 -30.4,-26.5 0,-24.3 20.8,-33.3 54.1,-34 6.8,0 12.9,0.4 18.6,0.7 v 12.5 c -0.1,29.7 -16.9,47.3 -42.3,47.3 z m 196.8,28.6 c 12.9,0 24.3,-3.2 30.8,-6.4 v -30.1 c -7.2,2.1 -12.9,3.2 -20,3.2 -17.5,0 -25.8,-6.8 -25.8,-25.8 v -89.1 h 44 V 78.4 h -44.4 V 26.1 h -39 v 52.3 h -38.7 v 30.8 h 38.7 v 94.5 c 0,36.2 19,53.7 54.4,53.7 z m 182.7,-3.6 V 109.2 h 41.9 V 78.4 h -41.9 V 61.6 c 0,-17.2 7.2,-25.4 25.4,-25.4 4.7,0 10,0.4 16.1,1.8 V 7.2 c -7.2,-1.8 -16.1,-3.6 -25.8,-3.6 -32.9,0 -55.1,16.1 -55.1,53 v 21.8 h -95 v 30.8 h 95 v 144.6 z m 266.5,4 c 42.6,0 68.7,-23.3 79.5,-50.8 l -33.7,-14 c -7.9,20.8 -22.2,33.7 -44.4,33.7 -30.8,0 -45.8,-21.5 -46.9,-52.6 h 125.7 v -7.2 c 0,-57.3 -29.4,-93.8 -81.3,-93.8 -48,0 -84.5,34 -84.5,92.4 0.1,55.7 30.5,92.3 85.6,92.3 z m 39.4,-111.7 h -83.8 c 2.9,-27.2 18.6,-43 43,-43 23.6,0 39.4,14.3 40.8,43 z m 110.8,107.7 V 78.4 h -40.8 v 175.4 z m 135.5,4.3 c 41.2,0 71.6,-34 71.6,-93.1 0,-56.9 -29.7,-90.9 -71.6,-90.9 -29.7,0 -49,16.5 -58,37.9 V 7.2 H 2242 v 246.7 h 40.1 v -33.7 c 9.3,21.4 29.4,37.9 58.7,37.9 z m -13.6,-30.4 c -27.9,0 -45.1,-24.7 -45.1,-61.6 0,-38.7 17.5,-61.6 44.8,-61.6 27.3,0 44,21.8 44,61.2 0,40.5 -16.5,62 -43.7,62 z m 608.1,-160.9 2.6,32.8 h -5.8 -0.5 c -7.6,0.1 -14,2.7 -19.3,7.7 -5.4,5.1 -8.1,13 -8.1,23.7 v 0 8.1 0.8 c -0.1,12.3 -3.2,23.4 -9.2,33.1 -6.1,10 -14.9,17.8 -26.3,23.4 -11.4,5.7 -24.6,8.5 -39.6,8.5 v 0 h -0.9 c -11.6,-0.1 -22.2,-2 -32.1,-5.7 v 0 l -0.7,-0.3 -0.6,0.2 c -3.1,1.2 -5.9,2.8 -8.2,4.8 -3.4,2.9 -5.1,6.6 -5.1,11 0,4.9 1.9,8.5 5.8,10.9 3.9,2.4 9.4,3.6 16.7,3.6 v 0 h 66.7 0.8 c 15.9,0.1 28.2,3.7 36.9,10.9 8.9,7.3 13.3,17.5 13.3,30.7 0,18.5 -7.8,32.7 -23.5,42.6 -15.6,9.9 -39.9,14.8 -72.7,14.8 -25.6,0 -45.3,-3.5 -59.1,-10.4 -13.8,-6.9 -20.6,-16.6 -20.6,-28.8 0,-7.9 2.7,-14.3 8,-19.1 5.3,-4.9 12.4,-8.4 21.2,-10.6 -7.6,-2.1 -13.6,-5.9 -18.1,-11.5 -4.5,-5.5 -6.7,-12.6 -6.7,-21.2 0,-9.6 3.4,-17.8 10.2,-24.6 v 0 l 0.5,-0.5 c 5.3,-5.1 11.6,-8.9 18.8,-11.2 v 0 h -0.1 c -6.4,-4.6 -11.7,-10.1 -16,-16.6 -6.6,-10 -9.8,-21.5 -9.8,-34.6 0,-12.3 3.2,-23.5 9.5,-33.6 6.3,-10.1 15.3,-18 26.7,-23.8 11.5,-5.8 24.7,-8.7 39.5,-8.7 15.4,0 29,3.1 40.8,9.3 11.7,6.2 20.3,14.9 25.6,26.1 1.1,-13.5 5.1,-23.7 11.9,-30.8 6.8,-7.1 16,-10.7 27.5,-11 z m -72.8,196.6 h -60.7 -0.6 c -7.2,0.1 -13,1.6 -17.2,4.6 -4.4,3.1 -6.6,7.3 -6.8,12.7 -0.1,7 4.1,12.2 12.4,15.6 8.4,3.4 20.8,5.1 37.4,5.1 20.5,0 35.5,-1.9 44.9,-5.7 9.5,-3.8 14.2,-9.4 14.2,-16.8 0,-5.5 -2,-9.5 -5.9,-11.9 -3.9,-2.4 -9.9,-3.6 -17.7,-3.6 z m -382.9,-185 v 103.5 c 0,27.9 10,41.5 30.1,41.5 25.4,0 44,-19.7 44,-58.4 v 0 -86.6 h 40.8 v 175.4 h -40.1 v -39.4 c -9.3,25.1 -29.7,43.3 -59.4,43.3 -36.9,0 -55.8,-25.8 -55.8,-65.9 v 0 -113.4 z m 348.2,22.3 c -7,0 -13.2,1.4 -18.7,4.3 -5.5,2.9 -9.8,7.2 -13,12.9 -3.2,5.8 -4.7,12.9 -4.7,21.3 0,12.6 3.4,22.1 10.1,28.5 6.7,6.4 15.5,9.6 26.3,9.6 10.9,0 19.7,-3.2 26.5,-9.7 6.8,-6.5 10.2,-16 10.2,-28.6 0,-8.5 -1.6,-15.6 -4.8,-21.3 -3.2,-5.7 -7.6,-10 -13.1,-12.8 -5.4,-2.8 -11.7,-4.2 -18.8,-4.2 z"
           style="fill:#344a9a"
           inkscape:export-filename="ufr_blue_full.svg"
           inkscape:export-xdpi="987.08508"
           inkscape:export-ydpi="987.08508" />
        <path
           id="Path"
           class="st0"
           d="m 1380.1,49.7 c 12.9,0 21.8,-9.7 21.8,-22.2 0,-12.2 -8.9,-21.8 -21.8,-21.8 -12.5,0 -21.8,9.7 -21.8,21.8 -0.1,12.5 9.2,22.2 21.8,22.2 z"
           style="fill:#344a9a" />
        <path
           id="Path_00000114066396755852636430000005126975575322645181_"
           class="st0"
           d="m 1447.1,49.7 c 12.9,0 21.8,-9.7 21.8,-22.2 0,-12.2 -8.9,-21.8 -21.8,-21.8 -12.5,0 -21.8,9.7 -21.8,21.8 -0.1,12.5 9.2,22.2 21.8,22.2 z"
           style="fill:#344a9a" />
        <path
           id="Path_00000052097539254170592260000013859522455155121582_"
           class="st0"
           d="m 1154.1,49.7 c 12.9,0 21.8,-9.7 21.8,-22.2 0,-12.2 -8.9,-21.8 -21.8,-21.8 -12.5,0 -21.8,9.7 -21.8,21.8 -0.1,12.5 9.2,22.2 21.8,22.2 z"
           style="fill:#344a9a" />
        <path
           id="Path_00000025422235422024084330000002449704485944981925_"
           class="st0"
           d="m 2184.1,49.7 c 12.9,0 21.8,-9.7 21.8,-22.2 0,-12.2 -9,-21.8 -21.8,-21.8 -12.5,0 -21.8,9.7 -21.8,21.8 -0.1,12.5 9.2,22.2 21.8,22.2 z"
           style="fill:#344a9a" />
        <path
           id="Path_00000024691299007139660760000000230562053445656708_"
           class="st0"
           d="m 410.1,49.7 c 12.9,0 21.8,-9.7 21.8,-22.2 0,-12.2 -9,-21.8 -21.8,-21.8 -12.5,0 -21.8,9.7 -21.8,21.8 -0.1,12.5 9.2,22.2 21.8,22.2 z"
           style="fill:#344a9a" />
      </g>
    </g>
  </g>
</svg>
